<svg width="60" height="60" viewBox="0 0 60 60" fill="none" xmlns="http://www.w3.org/2000/svg">
<path d="M20.9507 22.1329C22.6907 25.7569 25.0627 29.1535 28.0666 32.1575C31.0705 35.1614 34.4672 37.5334 38.0912 39.2734C38.4029 39.4231 38.5588 39.4979 38.756 39.5554C39.4569 39.7597 40.3175 39.613 40.9111 39.1879C41.0782 39.0683 41.221 38.9254 41.5068 38.6396C42.3808 37.7656 42.8178 37.3286 43.2573 37.0429C44.9145 35.9654 47.051 35.9654 48.7082 37.0429C49.1476 37.3286 49.5846 37.7656 50.4587 38.6397L50.9458 39.1268C52.2744 40.4554 52.9387 41.1197 53.2996 41.8332C54.0173 43.2521 54.0173 44.9277 53.2996 46.3467C52.9387 47.0601 52.2744 47.7244 50.9458 49.053L50.5517 49.4471C49.2277 50.7712 48.5657 51.4332 47.6656 51.9388C46.6668 52.4999 45.1156 52.9033 43.97 52.8999C42.9377 52.8968 42.2321 52.6965 40.821 52.296C33.2375 50.1436 26.0816 46.0824 20.1117 40.1124C14.1417 34.1425 10.0805 26.9866 7.92809 19.4031C7.52757 17.992 7.32731 17.2864 7.32424 16.2541C7.32083 15.1085 7.72424 13.5573 8.28529 12.5585C8.79091 11.6584 9.45294 10.9964 10.777 9.67234L11.1711 9.27826C12.4997 7.94965 13.164 7.28535 13.8774 6.92449C15.2963 6.20681 16.972 6.20681 18.3909 6.92449C19.1044 7.28535 19.7687 7.94965 21.0973 9.27826L21.5844 9.76543C22.4585 10.6394 22.8955 11.0765 23.1812 11.5159C24.2587 13.1731 24.2587 15.3096 23.1812 16.9668C22.8955 17.4062 22.4585 17.8433 21.5844 18.7173C21.2987 19.0031 21.1558 19.1459 21.0362 19.313C20.6111 19.9065 20.4644 20.7672 20.6687 21.4681C20.7262 21.6653 20.801 21.8212 20.9507 22.1329Z" stroke="white" stroke-width="4" stroke-linecap="round" stroke-linejoin="round"/>
</svg>
