<svg width="60" height="60" viewBox="0 0 60 60" fill="none" xmlns="http://www.w3.org/2000/svg">
<path d="M5 17.5L25.4123 31.7886C27.0652 32.9457 27.8917 33.5242 28.7907 33.7483C29.5847 33.9462 30.4153 33.9462 31.2093 33.7483C32.1083 33.5242 32.9348 32.9457 34.5877 31.7886L55 17.5M17 50H43C47.2004 50 49.3006 50 50.9049 49.1825C52.3161 48.4635 53.4635 47.3161 54.1825 45.9049C55 44.3006 55 42.2004 55 38V22C55 17.7996 55 15.6994 54.1825 14.0951C53.4635 12.6839 52.3161 11.5365 50.9049 10.8175C49.3006 10 47.2004 10 43 10H17C12.7996 10 10.6994 10 9.09507 10.8175C7.68386 11.5365 6.5365 12.6839 5.81745 14.0951C5 15.6994 5 17.7996 5 22V38C5 42.2004 5 44.3006 5.81745 45.9049C6.5365 47.3161 7.68386 48.4635 9.09507 49.1825C10.6994 50 12.7996 50 17 50Z" stroke="white" stroke-width="4" stroke-linecap="round" stroke-linejoin="round"/>
</svg>
